<svg width="18" height="19" viewBox="0 0 18 19" fill="none" xmlns="http://www.w3.org/2000/svg">
<path d="M16 0.832031C16.5304 0.832031 17.0391 1.04274 17.4142 1.41782C17.7893 1.79289 18 2.3016 18 2.83203V16.832C18 17.3625 17.7893 17.8712 17.4142 18.2462C17.0391 18.6213 16.5304 18.832 16 18.832H2C1.46957 18.832 0.960859 18.6213 0.585786 18.2462C0.210714 17.8712 0 17.3625 0 16.832V2.83203C0 2.3016 0.210714 1.79289 0.585786 1.41782C0.960859 1.04274 1.46957 0.832031 2 0.832031H16ZM15.5 16.332V11.032C15.5 10.1674 15.1565 9.33823 14.5452 8.72686C13.9338 8.11549 13.1046 7.77203 12.24 7.77203C11.39 7.77203 10.4 8.29203 9.92 9.07203V7.96203H7.13V16.332H9.92V11.402C9.92 10.632 10.54 10.002 11.31 10.002C11.6813 10.002 12.0374 10.1495 12.2999 10.4121C12.5625 10.6746 12.71 11.0307 12.71 11.402V16.332H15.5ZM3.88 6.39203C4.32556 6.39203 4.75288 6.21503 5.06794 5.89997C5.383 5.58491 5.56 5.1576 5.56 4.71203C5.56 3.78203 4.81 3.02203 3.88 3.02203C3.43178 3.02203 3.00193 3.20008 2.68499 3.51702C2.36805 3.83396 2.19 4.26382 2.19 4.71203C2.19 5.64203 2.95 6.39203 3.88 6.39203ZM5.27 16.332V7.96203H2.5V16.332H5.27Z" fill="#1C1E2A"/>
</svg>
